<svg id="Eli_logo_ob" xmlns="http://www.w3.org/2000/svg" width="188.564" height="110" viewBox="0 0 188.564 110">
  <path id="path0" d="M193.418,37.01A9.754,9.754,0,0,0,186.04,46.7c-.021,11.872,16.554,13.762,19.632,2.24,1.833-6.865-5.273-13.785-12.254-11.93m-133.694.008c-.246.029-1.086.123-1.866.21C41.962,39,26.523,50.883,21.206,65.437a44.428,44.428,0,0,0-1.944,6.27,45.577,45.577,0,0,0-.527,19.035,44.55,44.55,0,0,0,7.628,18,60.139,60.139,0,0,0,5.5,6.432,12.258,12.258,0,0,1,1.154,1.021,45.741,45.741,0,0,0,13.414,8.426c.575.222,1.18.465,1.344.542a46.508,46.508,0,0,0,9.4,2.31,101.778,101.778,0,0,0,12.373.06,51.957,51.957,0,0,0,9.583-2.362c.167-.071.7-.281,1.195-.468a49.479,49.479,0,0,0,12.3-7.3c1.1-.93,1.044-.947,1.789.584,3.161,6.492,10.687,9.514,21,8.431,8.319-.874,16.189-5.1,22.45-12.06,2.832-3.149,2.639-3.077,2.777-1.036a20.483,20.483,0,0,0,.829,4.525,1.3,1.3,0,0,1,.144.5c0,1.686,3.086,5.357,5.613,6.677,4.376,2.287,11.576,1.919,17.141-.875,2.721-1.368,4.033-2.354,7.349-5.542.111-.111.651-.767,1.193-1.462,1.177-1.507,1.2-1.506,1.64.091a12.231,12.231,0,0,0,7.075,8.352c2.526,1.118,7.65,1.2,10.657.177a12.418,12.418,0,0,0,8.522-10.317c.26-1.626.2-1.7-1.222-1.327-5.38,1.4-8.423-1.181-7.491-6.362.222-1.247.555-2.909.881-4.4.152-.7.385-1.806.52-2.463s.337-1.631.45-2.166c.25-1.181.6-2.832.908-4.332.128-.615.324-1.523.435-2.015s.308-1.4.437-2.015.369-1.758.533-2.538.4-1.888.518-2.463l.438-2.09c.121-.575.328-1.583.462-2.24s.338-1.6.454-2.09.278-1.232.355-1.642c.171-.885.475-2.308.908-4.255.174-.778.383-1.817.464-2.3a6.842,6.842,0,0,1,.212-.987c.035-.056.273-1.136.53-2.4l.587-2.892c.246-1.207.917-1.122-8.8-1.122-9.5,0-9.113-.038-9.113.9a2.855,2.855,0,0,1-.158.845,12.948,12.948,0,0,0-.369,1.54c-.195,1.042-.358,1.82-.909,4.332-.117.534-.318,1.475-.444,2.09s-.323,1.555-.433,2.09-.341,1.611-.512,2.388-.41,1.922-.532,2.538-.323,1.59-.448,2.166-.324,1.515-.444,2.09-.29,1.381-.381,1.792-.267,1.25-.392,1.866-.322,1.462-.439,1.879A5.783,5.783,0,0,0,177.588,91a2.734,2.734,0,0,1-.158.8,13.016,13.016,0,0,0-.37,1.54c-.24,1.271-.925,4.567-1.413,6.8-.18.821-.38,1.795-.444,2.166a9.324,9.324,0,0,1-.444,1.493c-.179.452-.38.992-.444,1.2-1.576,5.037-6.547,9.377-10.757,9.39-4.649.015-5.844-2.6-4.254-9.323.117-.493.349-1.6.518-2.464s.4-1.97.516-2.463.323-1.433.46-2.09.333-1.6.444-2.09.307-1.433.444-2.09.347-1.6.463-2.09.278-1.265.356-1.717.241-1.258.359-1.792c.345-1.555.713-3.285.92-4.332.107-.534.34-1.611.519-2.388s.418-1.888.532-2.463.3-1.482.417-2.015.389-1.844.611-2.911c.377-1.838.6-2.863,1.055-4.927.111-.493.31-1.433.448-2.09.242-1.159.385-1.812.894-4.058.133-.59.3-1.4.372-1.792s.377-1.862.68-3.258.6-2.84.66-3.21.182-.941.273-1.269.307-1.3.482-2.166.41-1.97.521-2.463.315-1.433.453-2.09.337-1.6.444-2.09.308-1.433.444-2.09.34-1.631.453-2.166.242-1.147.287-1.363c.155-.745-.037-.754-4.105-.194-4.41.608-8.54,1.161-11.188,1.5-1.026.131-2.135.283-2.463.339l-.6.1-.319,1.34c-.175.737-.432,1.877-.57,2.534s-.342,1.6-.454,2.09-.314,1.433-.452,2.09-.336,1.6-.444,2.09-.3,1.4-.429,2.015c-.7,3.348-1.252,5.919-1.512,7.092-.111.493-.312,1.433-.449,2.09-.353,1.682-.666,3.137-.9,4.18s-.737,3.423-1.055,5c-.124.615-.323,1.493-.444,1.951a6.756,6.756,0,0,0-.215,1.181,5.655,5.655,0,0,1-.217,1.111c-.261.916-.79,3.352-1.641,7.553-.108.534-.267,1.273-.353,1.642s-.263,1.21-.394,1.866-.313,1.5-.405,1.867-.217.974-.278,1.343-.26,1.31-.444,2.09-.417,1.855-.522,2.388c-.235,1.2-.475,2.333-.742,3.509-.111.493-.315,1.433-.453,2.09s-.345,1.568-.462,2.025a6.975,6.975,0,0,0-.212,1.144,4.381,4.381,0,0,1-1.015,1.409c-.559.6-1.348,1.461-1.754,1.908-5.921,6.511-11.872,9.465-19.1,9.482-7.382.018-9.588-3.075-9.017-12.64.172-2.885-.031-2.61,2.162-2.892,15.149-1.928,26.754-13.274,26.783-26.189.014-6.215-2.977-10.265-8.488-11.491A27.948,27.948,0,0,0,108.7,67.884c-1.666,1.249-1.611,1.242-1.953.272a46.071,46.071,0,0,0-2.684-6.311,45.437,45.437,0,0,0-35.681-24.7,73.579,73.579,0,0,0-8.659-.128m2.94,11.138c.717.569,1.126,20.352.468,22.581-.814,2.754-2.173,4.234-6.394,6.966-.575.372-2.732,1.913-4.795,3.424L44.925,86.27c-7.8,5.72-8.182,5.977-10.052,6.776-1.355.577-1.532.523-2.081-.631-1.532-3.217-1.989-5.643-2-10.628a30.119,30.119,0,0,1,1.722-11.2c.162-.493.351-1.03.42-1.194s.377-.9.682-1.642.6-1.411.659-1.493.393-.686.745-1.343c4.394-8.174,13.25-14.525,22.771-16.332,3.427-.65,4.477-.742,4.875-.427M77.429,68.933a10.1,10.1,0,0,1,4.406,2.881c.676.825.59,1.061-.5,1.391a13.7,13.7,0,0,0-4.6,2.666c-1.949,1.7-2.924,2.839-7.3,8.53-.739.96-1.934,2.513-2.656,3.449-1.808,2.345-3.507,4.58-7.195,9.465-1.736,2.3-4.02,5.323-5.077,6.72-2.585,3.414-3.88,5.142-4.923,6.569-2.063,2.823-2.641,3.307-3.752,3.141-1.883-.282-7.367-4.4-9.751-7.317-4.255-5.211-4.94-6.2-4.94-7.156,0-1.045,2.015-2.832,7.24-6.411,1.4-.957,3.647-2.549,5-3.538,3.65-2.666,4.366-3.178,8.286-5.953l5-3.543c.78-.554,2.191-1.545,3.136-2.2s2.993-2.209,4.554-3.448c6.638-5.272,9.386-6.374,13.079-5.242m50.181.1c1.346.374,2,1.426,2.2,3.522a23.136,23.136,0,0,1-.293,5.5,28.187,28.187,0,0,1-1.8,5c-2.385,4.915-7.373,9.3-12.218,10.743-3.4,1.011-3.958.745-3.126-1.485.077-.2.23-.778.342-1.269.209-.926.326-1.338,1.1-3.884a21.624,21.624,0,0,1,1.07-3.1,1.121,1.121,0,0,0,.148-.432c0-.222,1.438-3.559,2.244-5.206,3.166-6.467,7.309-10.238,10.33-9.4m-53.3.764a.768.768,0,1,0,.493-.179.8.8,0,0,0-.493.179M87.195,82.987c1.642.118,4.094.314,5.449.436s3.147.222,3.983.222c1.97,0,2.044.067,1.92,1.629A32.425,32.425,0,0,1,90.47,103.8c-.427.452-.936,1-1.131,1.213a36.177,36.177,0,0,1-6.433,4.885,29.38,29.38,0,0,1-3.923,1.961,36.224,36.224,0,0,1-7.39,2.182c-.7.124-1.672.3-2.166.393-4.513.833-12.145-.1-16.147-1.969-1.606-.751-1.648-.85-.969-2.245a20.065,20.065,0,0,1,2.924-4.18c.621-.778,1.55-1.977,2.063-2.66C65.269,92.771,70.132,86.459,70.985,85.62c2.963-2.916,5.831-3.383,16.209-2.635" transform="translate(-17.401 -36.702)" fill="#eb7828" fill-rule="evenodd"/>
  <path id="path2" d="M67.637,213.093c-.55.654-.444,1.14.333,1.541a1.172,1.172,0,0,0,1.517-.981c.014-.272-.8-1.02-1.115-1.02a1.172,1.172,0,0,0-.733.459M173.47,213a.985.985,0,1,0,1.388,1.388.944.944,0,0,0-.009-1.428.889.889,0,0,0-1.378.042m15.183-.127a.956.956,0,0,0,.264,1.773.979.979,0,0,0,.989-1.647.836.836,0,0,0-1.253-.127m-145.325.071c-.265.154-.421,8.655-.171,9.307.135.352,1.051.314,1.247-.056.323-.6.2-9.082-.134-9.26a.836.836,0,0,0-.944.007m9.324.018a2.738,2.738,0,0,0-.179,1.257c0,1.482-.056,1.6-.62,1.314a3.771,3.771,0,0,0-5.1,2.1,3.706,3.706,0,0,0,4.943,4.648c.587-.264.649-.267.9-.037a.976.976,0,0,0,1.19.068c.349-.349.245-9.18-.111-9.37a.889.889,0,0,0-1.025.024m24.6.056a2.388,2.388,0,0,0-.169,1.231c.034,1.385-.029,1.45-1.095,1.14a3.693,3.693,0,0,0-3.878,6.027,3.8,3.8,0,0,0,4.154.872c.523-.249.594-.253.833-.036a1.207,1.207,0,0,0,1.327.056c.132-.132.179-1.385.179-4.707v-4.527l-.383-.146c-.532-.2-.744-.183-.969.088m74.022-.072c-.309.179-.407,8.693-.107,9.254.2.367,1.111.4,1.247.056.272-.708.092-9.158-.2-9.313a.836.836,0,0,0-.944.007m32.845.149c-.207.121-.262.356-.262,1.12,0,.791-.048.982-.261,1.049-.95.293-1.1,1.135-.271,1.483l.532.222v2.513c0,2.76.077,3.007.936,3.007.587,0,.625-.162.706-2.986l.075-2.61.373-.052c.889-.123,1.122-1.3.293-1.465-.567-.111-.741-.432-.741-1.355,0-1.011-.573-1.394-1.381-.924m-152.824,2.25a3.748,3.748,0,0,0-1.521,6.149,3.793,3.793,0,0,0,5.665-.42,3.721,3.721,0,0,0-4.144-5.729m8.728-.016a3.125,3.125,0,0,1-1.08.042c-1.1-.15-1.1-.153-1.1,3.468,0,3.5.038,3.65.9,3.65.616,0,.659-.142.756-2.538.1-2.374.257-2.944.873-3.078.75-.167.908-.228,1.13-.451.769-.769-.19-1.478-1.48-1.092m43.28-.026c-3.757.975-3.265,6.752.62,7.267,1.972.262,4.41-1.562,3.589-2.684-.333-.458-.865-.32-1.633.422a2.049,2.049,0,0,1-3.407-.468c-.2-.536-.233-.53,2.285-.5,2.888.029,3.162-.039,3.225-.8.174-2.088-2.358-3.84-4.679-3.238m13.718.012c-3.016.722-3.409,5.432-.577,6.919,1.8.944,5-.274,5-1.9,0-.858-1.272-.983-1.589-.157-.341.889-2.259,1.09-3.1.323-1.1-1.01-.908-1.12,2.084-1.174,2.939-.052,3.158-.133,2.966-1.089a3.757,3.757,0,0,0-4.79-2.921m16.666.033c-.976.269-1.308.3-1.41.138-.136-.222-.874-.209-1.1.016-.3.3-.251,8.835.056,9.141.707.707,1.407.011,1.407-1.4,0-1.166.134-1.347.716-.961a3.6,3.6,0,0,0,3.15-.153,3.69,3.69,0,0,0-2.821-6.782m8.9-.063a3.8,3.8,0,0,1-1.182.111h-1.07l-.042,3.21c-.051,3.857-.047,3.882.637,3.882.727,0,.824-.284.824-2.422,0-2.344.3-3.117,1.26-3.27.582-.092,1.129-.555,1.129-.96,0-.452-1.222-.885-1.555-.551m5.137.018a3.7,3.7,0,0,0,1.046,7.242c2.152.007,4.2-1.817,3.058-2.718a.732.732,0,0,0-1.193.222c-.91,1.388-3.8,1.1-3.627-.367l.045-.374,2.208.033c3.289.049,3.586-.127,3.015-1.789a3.85,3.85,0,0,0-4.554-2.248m7.831.022c-1.922.591-1.639,2.982.5,4.187.734.414.8.49.753.93a.774.774,0,0,1-1.309.337c-.577-.7-1.784.132-1.291.885a2.447,2.447,0,0,0,4.17-.585c.417-1.222.044-1.973-1.422-2.864-1.561-.949-1.385-1.985.2-1.166a.749.749,0,0,0,1.176-.673c0-.793-1.616-1.406-2.77-1.051m5.8.061c-1.747.791-1.388,2.984.67,4.115a2.959,2.959,0,0,1,.839.628c.363.589-.944,1.191-1.4.643a.97.97,0,0,0-1.166-.045c-1.059,1.06,1.781,2.459,3.147,1.55,1.673-1.111,1.459-2.767-.528-4.077-1.262-.833-1.444-1.277-.546-1.355a.845.845,0,0,1,.728.187c.38.458,1.35-.051,1.35-.709,0-.73-2.128-1.375-3.095-.937m15.8-.041a3.77,3.77,0,0,0-1.531,6.149,3.82,3.82,0,0,0,5.213.1,3.712,3.712,0,0,0-3.682-6.251m9.257-.031a3.882,3.882,0,0,0-2.152,1.722,3.634,3.634,0,0,0,4.337,5.2c.8-.308,1.157-.1.7.408a2.655,2.655,0,0,1-3.785-.072c-.777-.833-1.944-.35-1.434.595,1.184,2.2,5.094,2.34,6.568.237l.453-.647.052-3.5c.06-4.11-.089-4.486-1.462-3.725-.309.171-.415.171-.682,0a5.069,5.069,0,0,0-2.591-.217m11.7.073c-1.957.954-1.617,2.934.722,4.187.623.333.79.673.553,1.117a.819.819,0,0,1-1.184.1.806.806,0,0,0-1.2-.023c-1.174,1.25,1.8,2.48,3.23,1.333,1.516-1.222,1.147-2.944-.862-4.039-.7-.382-1-.785-.806-1.1.141-.229.8-.181,1.261.092.382.222.439.222.807-.017,1.251-.82-1.081-2.353-2.515-1.653m16.606-.061a3.685,3.685,0,0,0-.574,6.907c2,.944,5.762-.419,4.88-1.766-.324-.494-.815-.47-1.629.08-1.955,1.319-4.4-.292-3.691-2.434.451-1.367,2.47-1.833,3.8-.878.8.571.981.586,1.427.111,1.046-1.111-2.007-2.576-4.213-2.02m7.579.051c-1.987.926-1.587,3.092.783,4.243.555.27.722.635.489,1.071a.816.816,0,0,1-1.2.081c-.555-.672-1.9.2-1.377.9,1.4,1.876,4.711.575,4.289-1.688-.088-.475-1.011-1.671-1.29-1.671-.384,0-1.333-.814-1.293-1.107.056-.4.749-.5,1.244-.173.462.3.545.3.938-.069.975-.908-1.189-2.232-2.585-1.582m-185.255.18c-.178.463-.147.574.656,2.376.073.167.275.635.449,1.045,1.366,3.229,1.763,3.851,2.122,3.327.148-.216.979-1.954,1.393-2.916.393-.91.53-.815,1.251.859.194.452.474,1.1.621,1.437.6,1.365.889,1.111,2.145-1.854.546-1.29,1.055-2.479,1.127-2.644.58-1.291.619-1.48.349-1.677-.514-.375-1.546.029-1.546.606a4.324,4.324,0,0,1-.32.83,18.219,18.219,0,0,0-.79,1.857c-.167.546-.424.28-.985-1.02-.177-.411-.416-.937-.531-1.17a1.988,1.988,0,0,1-.21-.631c0-.114-.175-.323-.389-.463-.508-.333-.662-.137-1.562,1.976-.793,1.863-.853,1.871-1.542.213-.656-1.58-.989-2.209-1.211-2.294-.44-.167-.935-.1-1.028.141m38.682-.049c-.228.17-.15.421.868,2.8.615,1.437,1.159,2.739,1.208,2.892.5,1.562,1.082,1.549,1.807-.041l.806-1.769c.372-.816.473-.8.877.149.836,1.964,1.392,2.962,1.6,2.881a1.232,1.232,0,0,1,.315-.082c.125,0,.684-1.239,2.155-4.776.713-1.716.735-1.8.54-2.034a1.119,1.119,0,0,0-1.126-.091,3.923,3.923,0,0,0-.571,1.005c-.222.493-.495,1.107-.611,1.366a2.522,2.522,0,0,0-.213.624c0,.547-.683.747-.811.237a10.856,10.856,0,0,0-.524-1.306c-.235-.507-.469-1.064-.52-1.237-.313-1.063-.92-.94-1.5.3a13.971,13.971,0,0,0-.977,2.319c0,.352-.608.147-.753-.253-.082-.225-.208-.545-.278-.709s-.278-.666-.461-1.12c-.525-1.3-1.127-1.684-1.833-1.157m11.984.2a21.882,21.882,0,0,0-.146,3.2c0,3.281.068,3.583.812,3.583.784,0,.833-.206.833-3.717,0-2.951-.018-3.149-.289-3.295-.534-.285-1.05-.188-1.208.229m35.8-.222c-.292.17-.2.463.4,1.2.173.214.415.541.538.726s.342.491.485.679c.373.488.328.759-.241,1.464-1.713,2.12-1.952,2.992-.8,2.907.611-.045,1.094-.489,2.044-1.888.309-.454.465-.4.97.309,1.143,1.615,2.262,2.191,2.542,1.31.111-.345.143-.283-1.076-1.975-1.131-1.57-1.13-1.547-.18-2.849,1.271-1.742,1.3-2.037.167-2.043-.52,0-.877.292-1.544,1.27-.444.657-.448.657-1.119-.189-.889-1.12-1.441-1.353-2.184-.921m70.058-.016c-.188.119-.222.67-.222,3.437,0,3.584,0,3.576.853,3.581a.611.611,0,0,0,.56-.287,32.538,32.538,0,0,0-.024-6.7,1.166,1.166,0,0,0-1.166-.033m15,0a65.094,65.094,0,0,0,0,6.867c.171.278,1.1.175,1.265-.138a32.539,32.539,0,0,0-.024-6.7c-.217-.217-1.111-.239-1.239-.031M33.682,217.154a2.039,2.039,0,0,1,.84,1.934,2.115,2.115,0,0,1-4.04.671,2.136,2.136,0,0,1,3.2-2.605m17.794-.061a2.087,2.087,0,0,1,.616,2.9,2.132,2.132,0,1,1-.618-2.893m24.669.056a2.027,2.027,0,0,1,.666,2.645,2.127,2.127,0,1,1-.666-2.645m9.33-.173c1.04.545.636.882-1.055.882-1.472,0-1.753-.107-1.505-.57.295-.551,1.765-.73,2.563-.312m13.872.132c.727.514.491.676-1.045.718-1.708.046-2.014-.08-1.508-.619a2.153,2.153,0,0,1,2.555-.1m16-.285a2.163,2.163,0,0,1,.429,3.89,2.123,2.123,0,0,1-3.142-2.348,2.458,2.458,0,0,1,1.473-1.593l.538-.082a3.008,3.008,0,0,1,.7.132m14.02-.023c.555.129,1.277.711,1.1.889a10.711,10.711,0,0,1-3.2.039c-.677-.452.987-1.186,2.1-.927m29.558.015c.633.005,1.476,1.176,1.477,2.051A2.128,2.128,0,0,1,156.9,220.5c-1.471-1.271-.329-4.131,1.5-3.749a3.344,3.344,0,0,0,.537.065m9.56.092c.909.254,1.333,2.2.689,3.147-1.4,2.062-4.681.139-3.61-2.119.519-1.094,1.477-1.431,2.921-1.028" transform="translate(-16.941 -114.925)" fill="#1c74a4" fill-rule="evenodd"/>
</svg>
